<svg width="103" height="60" viewBox="0 0 103 60" fill="none" xmlns="http://www.w3.org/2000/svg">
<path d="M4.032 59.136C3.392 59.136 2.848 59.008 2.4 58.752C1.952 58.496 1.728 58.016 1.728 57.312C1.728 56.416 1.952 55.36 2.4 54.144C2.912 52.928 3.456 51.712 4.032 50.496C4.608 49.28 5.088 48.288 5.472 47.52C5.792 46.944 6.208 46.048 6.72 44.832C7.296 43.552 7.872 42.24 8.448 40.896C9.088 39.488 9.6 38.304 9.984 37.344C10.432 36.384 10.656 35.904 10.656 35.904C10.08 36.544 9.312 37.44 8.352 38.592C7.456 39.744 6.464 40.96 5.376 42.24C4.352 43.456 3.392 44.608 2.496 45.696C1.664 46.784 1.056 47.584 0.672 48.096C0.48 48.352 0.32 48.48 0.192 48.48C0.0640001 48.48 1.19209e-07 48.32 1.19209e-07 48C1.19209e-07 47.488 0.16 47.008 0.48 46.56C1.248 45.6 2.176 44.448 3.264 43.104C4.352 41.696 5.44 40.288 6.528 38.88C7.68 37.472 8.672 36.224 9.504 35.136C8.992 35.136 8.32 35.168 7.488 35.232C6.72 35.296 6.016 35.392 5.376 35.52C4.736 35.584 4.384 35.616 4.32 35.616C4 35.616 4.032 35.36 4.416 34.848C4.8 34.336 5.312 33.824 5.952 33.312C6.592 32.8 7.072 32.544 7.392 32.544C7.456 32.544 7.968 32.576 8.928 32.64C9.888 32.64 10.592 32.64 11.04 32.64C12.32 30.912 13.568 28.928 14.784 26.688C16.064 24.448 17.312 21.984 18.528 19.296C19.04 19.232 19.904 18.88 21.12 18.24C22.4 17.536 23.392 16.832 24.096 16.128C24.416 15.808 24.672 15.648 24.864 15.648C25.248 15.648 25.248 15.904 24.864 16.416C24.416 16.928 23.648 18.016 22.56 19.68C21.472 21.28 20.256 23.232 18.912 25.536C17.568 27.776 16.288 30.144 15.072 32.64H22.848C23.552 32.64 23.904 32.736 23.904 32.928C23.904 33.184 23.424 33.44 22.464 33.696C21.376 34.016 20.224 34.208 19.008 34.272C17.856 34.336 16.768 34.464 15.744 34.656C14.784 34.848 14.08 35.264 13.632 35.904C13.248 36.352 12.704 37.312 12 38.784C11.296 40.256 10.528 41.952 9.696 43.872C8.928 45.728 8.256 47.616 7.68 49.536C7.104 51.392 6.752 52.96 6.624 54.24V54.624C6.624 55.136 6.784 55.552 7.104 55.872C7.424 56.192 7.744 56.352 8.064 56.352C8.896 56.352 9.952 55.84 11.232 54.816C12.576 53.792 13.952 52.576 15.36 51.168C16.768 49.696 17.984 48.352 19.008 47.136C19.456 46.624 19.84 46.144 20.16 45.696C20.544 45.248 20.768 44.96 20.832 44.832C20.96 45.088 21.024 45.28 21.024 45.408C21.024 45.792 20.896 46.208 20.64 46.656C20.448 47.104 20.224 47.488 19.968 47.808C18.752 49.408 17.28 51.104 15.552 52.896C13.824 54.624 11.968 56.096 9.984 57.312C8.064 58.528 6.08 59.136 4.032 59.136ZM39.1913 22.176C38.2953 22.176 37.6553 21.888 37.2713 21.312C37.0153 20.992 36.8873 20.576 36.8873 20.064C36.8873 19.04 37.3673 18.208 38.3273 17.568C39.0313 17.184 39.6713 16.992 40.2473 16.992C41.2073 16.992 41.8793 17.28 42.2633 17.856C42.5193 18.176 42.6473 18.592 42.6473 19.104C42.6473 20.128 42.1353 20.96 41.1113 21.6C40.5353 21.984 39.8953 22.176 39.1913 22.176ZM22.4873 59.136C21.8473 59.136 21.3033 59.008 20.8553 58.752C20.4713 58.496 20.2793 58.016 20.2793 57.312C20.2793 56.416 20.5033 55.36 20.9513 54.144C21.4633 52.928 22.0073 51.712 22.5833 50.496C23.2233 49.28 23.7033 48.288 24.0233 47.52C24.4713 46.624 25.0153 45.472 25.6553 44.064C26.3593 42.592 26.9993 41.216 27.5753 39.936C28.2153 38.592 28.6633 37.664 28.9193 37.152C28.0233 38.112 26.9353 39.328 25.6553 40.8C24.4393 42.208 23.2873 43.584 22.1993 44.928C21.1113 46.272 20.2793 47.328 19.7033 48.096C19.5113 48.352 19.3513 48.48 19.2233 48.48C19.0953 48.48 19.0313 48.32 19.0313 48C19.0313 47.488 19.1913 47.008 19.5113 46.56C20.7273 45.024 22.0713 43.296 23.5433 41.376C25.0793 39.456 26.4553 37.696 27.6713 36.096C28.8873 34.432 29.6553 33.344 29.9753 32.832C30.6793 32.704 31.7033 32.512 33.0473 32.256C34.4553 32 35.4153 31.648 35.9273 31.2C36.1193 31.008 36.3113 30.912 36.5033 30.912C36.6313 30.912 36.6953 31.04 36.6953 31.296C36.7593 31.488 36.6953 31.712 36.5033 31.968C36.1193 32.416 35.4473 33.504 34.4873 35.232C33.5273 36.96 32.5033 38.88 31.4153 40.992C30.3913 43.04 29.4313 44.896 28.5353 46.56C27.6393 48.288 26.8713 49.952 26.2313 51.552C25.5913 53.152 25.2713 54.304 25.2713 55.008C25.2713 55.904 25.7193 56.352 26.6153 56.352C27.4473 56.352 28.5033 55.84 29.7833 54.816C31.1273 53.792 32.4713 52.576 33.8153 51.168C35.1593 49.696 36.3433 48.352 37.3673 47.136C37.6873 46.752 38.0713 46.304 38.5193 45.792C39.0313 45.216 39.3513 44.864 39.4793 44.736C39.6073 44.864 39.6713 45.088 39.6713 45.408C39.6073 45.856 39.4473 46.304 39.1913 46.752C38.9353 47.136 38.6793 47.488 38.4233 47.808C37.0793 49.472 35.6073 51.2 34.0073 52.992C32.4073 54.72 30.6473 56.192 28.7273 57.408C26.8073 58.56 24.7273 59.136 22.4873 59.136ZM41.532 59.136C40.892 59.136 40.348 59.008 39.9 58.752C39.452 58.496 39.228 58.016 39.228 57.312C39.228 56.416 39.452 55.36 39.9 54.144C40.412 52.928 40.956 51.712 41.532 50.496C42.108 49.28 42.588 48.288 42.972 47.52C43.292 46.944 43.708 46.048 44.22 44.832C44.796 43.552 45.372 42.24 45.948 40.896C46.588 39.488 47.1 38.304 47.484 37.344C47.932 36.384 48.156 35.904 48.156 35.904C47.58 36.544 46.812 37.44 45.852 38.592C44.956 39.744 43.964 40.96 42.876 42.24C41.852 43.456 40.892 44.608 39.996 45.696C39.164 46.784 38.556 47.584 38.172 48.096C37.98 48.352 37.82 48.48 37.692 48.48C37.564 48.48 37.5 48.32 37.5 48C37.5 47.488 37.66 47.008 37.98 46.56C38.748 45.6 39.676 44.448 40.764 43.104C41.852 41.696 42.94 40.288 44.028 38.88C45.18 37.472 46.172 36.224 47.004 35.136C46.492 35.136 45.82 35.168 44.988 35.232C44.22 35.296 43.516 35.392 42.876 35.52C42.236 35.584 41.884 35.616 41.82 35.616C41.5 35.616 41.532 35.36 41.916 34.848C42.3 34.336 42.812 33.824 43.452 33.312C44.092 32.8 44.572 32.544 44.892 32.544C44.956 32.544 45.468 32.576 46.428 32.64C47.388 32.64 48.092 32.64 48.54 32.64C49.82 30.912 51.068 28.928 52.284 26.688C53.564 24.448 54.812 21.984 56.028 19.296C56.54 19.232 57.404 18.88 58.62 18.24C59.9 17.536 60.892 16.832 61.596 16.128C61.916 15.808 62.172 15.648 62.364 15.648C62.748 15.648 62.748 15.904 62.364 16.416C61.916 16.928 61.148 18.016 60.06 19.68C58.972 21.28 57.756 23.232 56.412 25.536C55.068 27.776 53.788 30.144 52.572 32.64H60.348C61.052 32.64 61.404 32.736 61.404 32.928C61.404 33.184 60.924 33.44 59.964 33.696C58.876 34.016 57.724 34.208 56.508 34.272C55.356 34.336 54.268 34.464 53.244 34.656C52.284 34.848 51.58 35.264 51.132 35.904C50.748 36.352 50.204 37.312 49.5 38.784C48.796 40.256 48.028 41.952 47.196 43.872C46.428 45.728 45.756 47.616 45.18 49.536C44.604 51.392 44.252 52.96 44.124 54.24V54.624C44.124 55.136 44.284 55.552 44.604 55.872C44.924 56.192 45.244 56.352 45.564 56.352C46.396 56.352 47.452 55.84 48.732 54.816C50.076 53.792 51.452 52.576 52.86 51.168C54.268 49.696 55.484 48.352 56.508 47.136C56.956 46.624 57.34 46.144 57.66 45.696C58.044 45.248 58.268 44.96 58.332 44.832C58.46 45.088 58.524 45.28 58.524 45.408C58.524 45.792 58.396 46.208 58.14 46.656C57.948 47.104 57.724 47.488 57.468 47.808C56.252 49.408 54.78 51.104 53.052 52.896C51.324 54.624 49.468 56.096 47.484 57.312C45.564 58.528 43.58 59.136 41.532 59.136ZM63.0593 59.04C61.1393 59.04 59.8273 58.592 59.1233 57.696C58.4193 56.736 58.0673 55.584 58.0673 54.24C58.0673 52.448 58.4513 50.528 59.2193 48.48C60.0513 46.432 60.7233 44.832 61.2352 43.68C60.4033 44.576 59.6033 45.44 58.8353 46.272C58.0673 47.104 57.5233 47.712 57.2033 48.096C57.0113 48.352 56.8513 48.48 56.7233 48.48C56.5953 48.48 56.5313 48.32 56.5313 48C56.5313 47.488 56.6913 47.008 57.0113 46.56C57.9073 45.408 58.9313 44.192 60.0833 42.912C61.2353 41.632 62.3553 40.288 63.4433 38.88C64.7233 36.512 66.1313 33.76 67.6673 30.624C69.2673 27.424 70.8993 24.16 72.5633 20.832C74.2913 17.44 75.9553 14.336 77.5553 11.52C79.2193 8.63999 80.6913 6.33599 81.9713 4.60799C83.0593 4.15999 84.0833 3.58399 85.0433 2.87999C86.0673 2.17599 87.0593 1.53599 88.0193 0.959988C89.0433 0.319988 90.0993 -1.14441e-05 91.1873 -1.14441e-05C91.8913 -1.14441e-05 92.4033 0.191988 92.7233 0.575987C93.1073 0.95999 93.3633 1.40799 93.4913 1.91999C93.5553 2.11199 93.5873 2.46399 93.5873 2.97599C93.5873 4.44799 93.0753 6.23999 92.0513 8.35199C91.0913 10.464 89.9393 12.544 88.5953 14.592C87.3153 16.576 86.1953 18.208 85.2353 19.488C82.6753 23.072 80.0513 26.336 77.3633 29.28C74.6753 32.16 72.2433 34.592 70.0673 36.576C67.9553 38.496 66.4193 39.904 65.4592 40.8C65.0113 41.632 64.4673 42.752 63.8273 44.16C63.2513 45.504 62.7393 46.944 62.2913 48.48C61.8433 49.952 61.6193 51.328 61.6193 52.608C61.6193 53.696 61.8753 54.624 62.3873 55.392C62.8993 56.096 63.7633 56.448 64.9793 56.448C65.1713 56.448 65.3633 56.448 65.5553 56.448C65.7473 56.448 65.9713 56.416 66.2273 56.352C67.3153 56.16 68.4993 55.552 69.7793 54.528C71.0593 53.504 72.3393 52.32 73.6193 50.976C74.8993 49.632 76.0513 48.352 77.0753 47.136C77.5233 46.624 77.9393 46.144 78.3233 45.696C78.7073 45.184 78.9633 44.832 79.0913 44.64C79.5393 45.088 79.5073 45.664 78.9953 46.368C78.5473 47.008 78.1633 47.552 77.8433 48C77.3953 48.576 76.7553 49.376 75.9233 50.4C75.0913 51.36 74.1313 52.416 73.0433 53.568C71.8273 54.784 70.3233 56 68.5313 57.216C66.7393 58.432 64.9153 59.04 63.0593 59.04ZM67.0913 36.96C69.0753 35.296 71.5713 32.928 74.5793 29.856C77.6513 26.72 80.6593 22.944 83.6033 18.528C83.9233 18.016 84.4353 17.152 85.1393 15.936C85.9073 14.72 86.6753 13.344 87.4433 11.808C88.2753 10.208 88.9793 8.67199 89.5553 7.19999C90.1313 5.66399 90.4193 4.35199 90.4193 3.26399C90.4193 2.23999 90.1313 1.72799 89.5553 1.72799C88.8513 1.72799 87.9233 2.33599 86.7713 3.55199C85.4273 4.95999 83.8913 7.03999 82.1633 9.79199C80.4993 12.48 78.7393 15.488 76.8833 18.816C75.0273 22.144 73.2353 25.408 71.5073 28.608C69.8433 31.808 68.3713 34.592 67.0913 36.96ZM82.7265 59.616C80.1025 59.616 78.2785 59.104 77.2545 58.08C76.2305 57.056 75.7185 55.808 75.7185 54.336C75.7185 52.48 76.1985 50.496 77.1585 48.384C78.1825 46.272 79.1425 44.48 80.0385 43.008C81.0625 41.472 82.4385 39.872 84.1665 38.208C85.8945 36.544 87.7825 35.136 89.8305 33.984C91.8785 32.832 93.8625 32.256 95.7825 32.256C97.4465 32.256 98.5985 32.672 99.2385 33.504C99.8785 34.272 100.199 35.2 100.199 36.288C100.199 38.272 99.5905 39.904 98.3745 41.184C97.2225 42.464 95.7825 43.52 94.0545 44.352C92.3265 45.12 90.6625 45.76 89.0625 46.272C88.1025 46.528 86.9825 46.784 85.7025 47.04C84.4225 47.296 83.2065 47.424 82.0545 47.424C81.6065 48.576 81.2545 49.696 80.9985 50.784C80.7425 51.872 80.6145 52.864 80.6145 53.76C80.6145 54.848 80.8705 55.744 81.3825 56.448C81.9585 57.152 82.8865 57.504 84.1665 57.504C84.6785 57.504 85.2865 57.44 85.9905 57.312C86.6945 57.184 87.4625 56.992 88.2945 56.736C90.2145 56.096 92.1025 55.072 93.9585 53.664C95.8145 52.256 97.5105 50.752 99.0465 49.152C100.647 47.488 101.863 46.112 102.695 45.024C102.887 45.216 102.983 45.44 102.983 45.696C102.983 46.016 102.759 46.528 102.311 47.232C101.031 49.024 99.3665 50.88 97.3185 52.8C95.2705 54.72 92.9985 56.352 90.5025 57.696C88.0065 58.976 85.4145 59.616 82.7265 59.616ZM82.8225 45.504C83.6545 45.568 84.5825 45.568 85.6065 45.504C86.6945 45.376 87.7505 45.152 88.7745 44.832C91.3985 44.064 93.2865 42.848 94.4385 41.184C95.6545 39.456 96.2625 37.92 96.2625 36.576C96.2625 35.808 96.1025 35.168 95.7825 34.656C95.4625 34.144 94.9505 33.888 94.2465 33.888C92.3905 33.888 90.7265 34.592 89.2545 36C87.7825 37.344 86.5025 38.912 85.4145 40.704C84.3265 42.496 83.4625 44.096 82.8225 45.504Z" fill="black"/>
</svg>
